<svg width="30" height="30" viewBox="0 0 30 30" fill="none" xmlns="http://www.w3.org/2000/svg">
<path d="M25.5811 14.559C25.5781 17.2581 24.5047 19.8459 22.5962 21.7545C20.6877 23.6632 18.1 24.7368 15.4009 24.74C13.296 24.7375 11.2436 24.0839 9.5249 22.8688C7.80616 21.6537 6.50509 19.9366 5.80078 17.953H1.24219C2.00821 21.1317 3.82038 23.9607 6.3877 25.9856C8.95501 28.0105 12.1282 29.1137 15.3979 29.118C19.2579 29.1135 22.9586 27.5781 25.688 24.8488C28.4174 22.1194 29.9525 18.4189 29.957 14.559C29.957 14.376 29.9499 14.194 29.9429 14.012H25.563C25.575 14.193 25.5811 14.375 25.5811 14.559Z" fill="#2828B2"/>
<path d="M5.22021 14.559C5.22313 11.8598 6.29637 9.27204 8.20508 7.36353C10.1138 5.45501 12.7017 4.38168 15.4009 4.37903C17.5447 4.3817 19.6331 5.0601 21.3691 6.31787C23.1052 7.57565 24.4004 9.34875 25.0708 11.385H29.6069C28.8816 8.15712 27.0802 5.27176 24.4985 3.20288C21.9168 1.134 18.7083 0.00458926 15.3999 0C11.5398 0.00423457 7.83896 1.5394 5.10938 4.2688C2.37979 6.99819 0.844343 10.6989 0.839844 14.559C0.839844 14.816 0.84784 15.072 0.86084 15.325H5.25098C5.23298 15.072 5.22021 14.817 5.22021 14.559Z" fill="#2828B2"/>
<path d="M20.655 9.08606H4.29004V11.2751H20.655V9.08606Z" fill="#2828B2"/>
<path d="M26.621 17.843H10.584V20.032H26.621V17.843Z" fill="#2828B2"/>
<path d="M12.335 10.837H10.146V20.032H12.335V10.837Z" fill="#2828B2"/>
<path d="M20.6548 10.837H18.4658V20.032H20.6548V10.837Z" fill="#2828B2"/>
</svg>
