<svg width="13" height="14" viewBox="0 0 13 14" fill="none" xmlns="http://www.w3.org/2000/svg">
<path d="M12.9062 13.5531H0.0448337C0.037392 13.1054 0.0601576 12.6578 0.112217 12.2131C0.200883 11.7671 1.10511 11.2201 2.82511 10.5721C3.09311 10.4831 3.4163 10.3721 3.7963 10.2371C4.11897 10.1525 4.42372 10.0105 4.6962 9.81808C4.82 9.5399 4.86609 9.2334 4.82999 8.93106V8.73111C4.82266 8.44224 4.717 8.16451 4.53019 7.94406C4.27261 7.53332 4.11196 7.0692 4.06095 6.58707C4.02902 6.39729 3.96143 6.21536 3.86124 6.05106C3.73015 5.80024 3.63963 5.53023 3.59317 5.25107C3.52693 5.06773 3.52089 4.86802 3.57608 4.68106C3.61588 4.57269 3.64402 4.46043 3.66007 4.3461C3.6154 3.98943 3.57095 3.62273 3.52628 3.24606C3.52163 2.62655 3.76245 2.03046 4.1962 1.5881C4.48362 1.27692 4.83814 1.03523 5.23282 0.881378C5.62751 0.727524 6.05183 0.665539 6.47403 0.700103C6.89608 0.665545 7.32072 0.727519 7.71524 0.881378C8.10977 1.03524 8.46367 1.27694 8.75089 1.5881C9.18501 2.03021 9.42639 2.62647 9.4213 3.24606C9.3763 3.62606 9.33202 3.9941 9.28702 4.3461C9.30333 4.46038 9.33146 4.57261 9.37101 4.68106C9.42727 4.86788 9.42122 5.06793 9.35392 5.25107C9.30737 5.53007 9.21767 5.80002 9.08731 6.05106C8.98649 6.21505 8.91837 6.39711 8.88712 6.58707C8.83658 7.06916 8.67624 7.53331 8.41886 7.94406C8.23183 8.16438 8.12614 8.44219 8.11905 8.73111C8.11905 9.40111 8.18591 9.78075 8.31925 9.87009C8.85439 10.1123 9.40217 10.3246 9.96085 10.5061C10.0146 10.5329 10.0705 10.5553 10.1278 10.5731C11.8472 11.2211 12.7519 11.7681 12.8412 12.2141L12.9062 13.5531Z" fill="#545454"/>
</svg>
