<svg width="10" height="12" viewBox="0 0 10 12" fill="none" xmlns="http://www.w3.org/2000/svg">
<path d="M1.49124 11.1371C1.42359 11.1376 1.35636 11.1244 1.29397 11.0983C1.23158 11.0721 1.17503 11.0336 1.12795 10.985C1.07926 10.9378 1.0408 10.8812 1.01467 10.8187C0.988542 10.7561 0.975427 10.6888 0.976099 10.621V5.65307C0.975427 5.58526 0.988542 5.51802 1.01467 5.45544C1.0408 5.39286 1.07926 5.33625 1.12795 5.28906C1.17503 5.24049 1.23158 5.20196 1.29397 5.17584C1.35636 5.14971 1.42359 5.13654 1.49124 5.13708H2.00735V4.41003C1.97513 3.41248 2.3371 2.44246 3.01516 1.71008C3.32431 1.36472 3.70387 1.08972 4.12844 0.903743C4.55301 0.717767 5.01263 0.625147 5.4761 0.632076C5.93954 0.625277 6.3992 0.717959 6.82376 0.903926C7.24831 1.08989 7.6278 1.36482 7.93704 1.71008C8.61417 2.44296 8.9762 3.41273 8.94436 4.41003V5.13708H9.45999C9.52763 5.13654 9.59486 5.14971 9.65725 5.17584C9.71965 5.20196 9.77619 5.24049 9.82327 5.28906C9.87214 5.33617 9.91073 5.39274 9.93704 5.45532C9.96334 5.5179 9.97664 5.58519 9.9761 5.65307V10.621C9.97664 10.6889 9.96334 10.7562 9.93704 10.8188C9.91073 10.8814 9.87214 10.9379 9.82327 10.985C9.77619 11.0336 9.71965 11.0721 9.65725 11.0983C9.59486 11.1244 9.52763 11.1376 9.45999 11.1371H1.49124ZM3.24905 4.41003V5.13708H7.70217V4.41003C7.73595 3.72346 7.50084 3.05079 7.04641 2.53503V2.51208C6.84864 2.29297 6.60584 2.11883 6.33499 2.00152C6.06413 1.88421 5.77121 1.8264 5.4761 1.83203C5.1808 1.82612 4.88778 1.88383 4.61672 2.00116C4.34567 2.11848 4.1031 2.29274 3.9053 2.51208V2.53503C3.45096 3.05085 3.21538 3.72348 3.24905 4.41003Z" fill="#545454"/>
</svg>
