<svg width="12" height="12" viewBox="0 0 12 12" fill="none" xmlns="http://www.w3.org/2000/svg">
<path d="M10.452 0.762948C10.5878 0.734999 10.7284 0.737633 10.8631 0.770669C10.9978 0.803704 11.1235 0.866308 11.231 0.953942C11.4645 1.1306 11.6212 1.39011 11.669 1.67895C11.6968 1.82361 11.6943 1.97246 11.6614 2.11605C11.6286 2.25964 11.5661 2.39481 11.4781 2.51295L5.81696 10.7709C5.64733 10.9999 5.39723 11.1561 5.117 11.2079C4.98113 11.236 4.84063 11.2335 4.70587 11.2004C4.57111 11.1674 4.44543 11.1047 4.33795 11.0169C3.933 10.6516 3.54945 10.2633 3.18903 9.85395C2.56903 9.18728 1.98569 8.54495 1.43903 7.92695L0.592102 6.99694C0.392877 6.78162 0.285233 6.49721 0.292053 6.20394C0.289696 6.05637 0.317674 5.90989 0.374085 5.77351C0.430495 5.63712 0.514268 5.51373 0.620178 5.41094C0.718036 5.30695 0.836928 5.22511 0.969055 5.17095C1.10118 5.11679 1.24335 5.09156 1.38605 5.09695C1.52856 5.10076 1.66845 5.13578 1.79596 5.19953C1.92347 5.26329 2.03553 5.35423 2.12408 5.46595L4.83112 8.39195L9.75299 1.19994C9.9221 0.970858 10.172 0.814641 10.452 0.762948Z" fill="white"/>
</svg>
